<mxfile host="app.diagrams.net" modified="2024-04-01T13:37:39.603Z" agent="Mozilla/5.0 (Windows NT 10.0; Win64; x64) AppleWebKit/537.36 (KHTML, like Gecko) Chrome/123.0.0.0 Safari/537.36" version="24.0.7" etag="wo25n9pRQmPzC1sddYTP" type="github">
  <diagram name="PÃ¡gina-1" id="JJieQt3MTN8SC89Ihwvl">
    <mxGraphModel>
      <root>
        <mxCell id="0" />
        <mxCell id="1" parent="0" />
      </root>
    </mxGraphModel>
  </diagram>
</mxfile>
